<?xml version="1.0" standalone="no"?>
<!DOCTYPE svg PUBLIC "-//W3C//DTD SVG 20010904//EN"
 "http://www.w3.org/TR/2001/REC-SVG-20010904/DTD/svg10.dtd">
<svg version="1.0" xmlns="http://www.w3.org/2000/svg"
 width="700.000000pt" height="700.000000pt" viewBox="0 0 700.000000 700.000000"
 preserveAspectRatio="xMidYMid meet">
<metadata>
Created by potrace 1.11, written by Peter Selinger 2001-2013
</metadata>
<g transform="translate(0.000000,700.000000) scale(0.100000,-0.100000)"
fill="#000000" stroke="none">
<path d="M4837 5464 c-1 -1 -40 -4 -87 -8 -252 -17 -450 -69 -655 -172 -162
-81 -248 -142 -378 -264 -148 -141 -253 -280 -352 -466 -32 -60 -113 -252
-120 -284 -2 -8 -14 -55 -28 -105 -23 -80 -46 -194 -61 -295 -28 -188 -29
-632 -2 -800 2 -14 7 -50 11 -80 23 -170 111 -443 197 -612 45 -88 140 -241
171 -273 6 -7 28 -34 47 -59 19 -25 76 -84 126 -132 214 -202 456 -333 742
-399 173 -39 262 -49 457 -49 206 -1 294 8 465 46 220 48 470 163 623 287 65
52 178 155 211 193 53 59 176 224 176 237 0 5 3 11 8 13 15 7 94 156 137 258
40 97 95 267 109 340 3 14 8 36 11 50 3 14 8 41 11 60 3 19 9 60 14 90 19 110
25 219 25 430 0 277 -8 357 -56 580 -35 164 -30 143 -73 267 -151 430 -450
779 -833 972 -134 67 -334 127 -513 155 -71 11 -374 27 -383 20z m308 -442
c22 -6 54 -13 70 -15 84 -13 245 -83 350 -152 134 -88 309 -293 392 -460 86
-171 149 -393 178 -625 13 -101 13 -487 0 -595 -20 -159 -23 -179 -52 -295
-98 -400 -327 -720 -621 -869 -241 -122 -536 -156 -822 -96 -269 56 -514 225
-681 470 -98 144 -185 353 -225 540 -14 66 -36 200 -42 260 -9 92 -9 461 1
550 15 145 25 204 48 293 11 42 22 84 24 92 10 45 53 156 91 239 85 182 221
354 362 461 96 72 262 155 352 175 52 12 170 35 195 38 62 7 342 -1 380 -11z"/>
<path d="M4 3468 c0 -1061 2 -1928 5 -1929 8 -1 482 -1 501 0 13 1 15 220 15
1920 0 1056 -4 1923 -8 1927 -4 4 -121 8 -260 9 l-253 0 0 -1927z"/>
<path d="M2391 5390 c-7 -5 -13 -24 -56 -165 -13 -44 -65 -213 -115 -375 -51
-162 -109 -351 -130 -420 -21 -69 -68 -219 -103 -335 -131 -422 -280 -902
-309 -995 -16 -52 -34 -111 -39 -130 -6 -19 -23 -75 -39 -125 -16 -49 -45
-144 -65 -210 -20 -66 -49 -160 -65 -210 -40 -128 -75 -240 -95 -310 -10 -33
-26 -85 -36 -115 -10 -30 -34 -107 -53 -170 -19 -63 -80 -261 -135 -440 -56
-179 -101 -329 -101 -335 0 -8 352 -13 426 -6 7 1 15 13 18 29 4 15 27 90 51
167 24 77 82 264 129 415 110 359 154 501 251 815 26 83 66 213 90 290 124
404 163 530 230 745 40 129 89 287 108 350 47 152 186 605 298 965 50 160 108
349 130 420 22 72 42 135 43 140 4 10 -419 15 -433 5z"/>
</g>
</svg>
